<svg xmlns="http://www.w3.org/2000/svg" viewBox="0 0 400 400" role="img" aria-hidden="true">
<defs>
<linearGradient id="mg-bg" x1="0" y1="0" x2="0" y2="1"><stop offset="0" stop-color="#f8f4ea"/><stop offset="1" stop-color="#ece2cf"/></linearGradient>
<linearGradient id="mg-green" x1="0" y1="0" x2="1" y2="1"><stop offset="0" stop-color="#1e4d39"/><stop offset="1" stop-color="#0e2c20"/></linearGradient>
<linearGradient id="mg-greenL" x1="0" y1="0" x2="0" y2="1"><stop offset="0" stop-color="#2a6b4f"/><stop offset="1" stop-color="#163f2e"/></linearGradient>
<linearGradient id="mg-gold" x1="0" y1="0" x2="0" y2="1"><stop offset="0" stop-color="#e9d6a3"/><stop offset=".55" stop-color="#c9a35c"/><stop offset="1" stop-color="#a57c3c"/></linearGradient>
<linearGradient id="mg-goldD" x1="0" y1="0" x2="0" y2="1"><stop offset="0" stop-color="#c9a35c"/><stop offset="1" stop-color="#8f6a31"/></linearGradient>
<linearGradient id="mg-cream" x1="0" y1="0" x2="0" y2="1"><stop offset="0" stop-color="#fffdf8"/><stop offset="1" stop-color="#efe6d3"/></linearGradient>
<linearGradient id="mg-kraft" x1="0" y1="0" x2="0" y2="1"><stop offset="0" stop-color="#e8cf9f"/><stop offset="1" stop-color="#d3b077"/></linearGradient>
<linearGradient id="mg-kraftD" x1="0" y1="0" x2="0" y2="1"><stop offset="0" stop-color="#d9b984"/><stop offset="1" stop-color="#bf9659"/></linearGradient>
<linearGradient id="mg-dark" x1="0" y1="0" x2="0" y2="1"><stop offset="0" stop-color="#3a3f3b"/><stop offset="1" stop-color="#171b18"/></linearGradient>
<linearGradient id="mg-rose" x1="0" y1="0" x2="1" y2="1"><stop offset="0" stop-color="#d96877"/><stop offset="1" stop-color="#8f2f3b"/></linearGradient>
<linearGradient id="mg-brown" x1="0" y1="0" x2="1" y2="1"><stop offset="0" stop-color="#7a5236"/><stop offset="1" stop-color="#53351f"/></linearGradient>
<linearGradient id="mg-brownD" x1="0" y1="0" x2="0" y2="1"><stop offset="0" stop-color="#5e3c24"/><stop offset="1" stop-color="#3c2413"/></linearGradient>
</defs>
<rect width="400" height="400" fill="url(#mg-bg)"/>
<ellipse cx="200" cy="352" rx="150" ry="17" fill="#d5c7a9" opacity=".5"/><polygon points="140,188 272,188 292,208 160,208" fill="url(#mg-greenL)"/><rect x="140" y="208" width="132" height="122" fill="url(#mg-green)"/><polygon points="272,208 292,208 292,330 272,330" fill="#0d271c"/><polygon points="140,208 160,208 160,330 140,330" fill="#2a6b4f"/><rect x="140" y="252" width="132" height="26" fill="url(#mg-gold)"/><polygon points="272,252 292,252 292,278 272,278" fill="url(#mg-goldD)"/><rect x="194" y="258" width="58" height="14" rx="7" fill="#0e2c20" opacity=".9"/><text x="223" y="269" text-anchor="middle" font-family="Georgia,serif" font-size="10" fill="#e9d6a3" letter-spacing="1">EliteBox</text><rect x="148" y="290" width="18" height="8" rx="4" fill="#e9d6a3" opacity=".8"/><rect x="246" y="290" width="18" height="8" rx="4" fill="#e9d6a3" opacity=".8"/><line x1="140" y1="208" x2="272" y2="208" stroke="#e9d6a3" stroke-width="1.5" opacity=".6"/>
</svg>