<svg xmlns="http://www.w3.org/2000/svg" viewBox="0 0 400 400" role="img" aria-hidden="true">
<defs>
<linearGradient id="in-bg" x1="0" y1="0" x2="0" y2="1"><stop offset="0" stop-color="#f8f4ea"/><stop offset="1" stop-color="#ece2cf"/></linearGradient>
<linearGradient id="in-green" x1="0" y1="0" x2="1" y2="1"><stop offset="0" stop-color="#1e4d39"/><stop offset="1" stop-color="#0e2c20"/></linearGradient>
<linearGradient id="in-greenL" x1="0" y1="0" x2="0" y2="1"><stop offset="0" stop-color="#2a6b4f"/><stop offset="1" stop-color="#163f2e"/></linearGradient>
<linearGradient id="in-gold" x1="0" y1="0" x2="0" y2="1"><stop offset="0" stop-color="#e9d6a3"/><stop offset=".55" stop-color="#c9a35c"/><stop offset="1" stop-color="#a57c3c"/></linearGradient>
<linearGradient id="in-goldD" x1="0" y1="0" x2="0" y2="1"><stop offset="0" stop-color="#c9a35c"/><stop offset="1" stop-color="#8f6a31"/></linearGradient>
<linearGradient id="in-cream" x1="0" y1="0" x2="0" y2="1"><stop offset="0" stop-color="#fffdf8"/><stop offset="1" stop-color="#efe6d3"/></linearGradient>
<linearGradient id="in-kraft" x1="0" y1="0" x2="0" y2="1"><stop offset="0" stop-color="#e8cf9f"/><stop offset="1" stop-color="#d3b077"/></linearGradient>
<linearGradient id="in-kraftD" x1="0" y1="0" x2="0" y2="1"><stop offset="0" stop-color="#d9b984"/><stop offset="1" stop-color="#bf9659"/></linearGradient>
<linearGradient id="in-dark" x1="0" y1="0" x2="0" y2="1"><stop offset="0" stop-color="#3a3f3b"/><stop offset="1" stop-color="#171b18"/></linearGradient>
<linearGradient id="in-rose" x1="0" y1="0" x2="1" y2="1"><stop offset="0" stop-color="#d96877"/><stop offset="1" stop-color="#8f2f3b"/></linearGradient>
<linearGradient id="in-brown" x1="0" y1="0" x2="1" y2="1"><stop offset="0" stop-color="#7a5236"/><stop offset="1" stop-color="#53351f"/></linearGradient>
<linearGradient id="in-brownD" x1="0" y1="0" x2="0" y2="1"><stop offset="0" stop-color="#5e3c24"/><stop offset="1" stop-color="#3c2413"/></linearGradient>
</defs>
<rect width="400" height="400" fill="url(#in-bg)"/>
<ellipse cx="200" cy="352" rx="150" ry="16" fill="#d5c7a9" opacity=".5"/><polygon points="140,196 260,196 280,214 160,214" fill="url(#in-cream)"/><rect x="140" y="214" width="120" height="84" fill="url(#in-green)"/><polygon points="260,214 280,214 280,298 260,284" fill="#0d271c"/><line x1="200" y1="196" x2="200" y2="214" stroke="#c9a35c" stroke-width="2"/><line x1="150" y1="205" x2="270" y2="205" stroke="#c9a35c" stroke-width="2"/><line x1="170" y1="196" x2="170" y2="214" stroke="#e9d6a3" stroke-width="1" opacity=".6"/><line x1="230" y1="196" x2="230" y2="214" stroke="#e9d6a3" stroke-width="1" opacity=".6"/><circle cx="185" cy="205" r="6" fill="url(#in-gold)"/><circle cx="215" cy="205" r="6" fill="url(#in-gold)"/><rect x="150" y="196" width="20" height="18" rx="2" fill="#f3e5bd" opacity=".5"/><text x="150" y="266" font-family="Georgia,serif" font-size="9" fill="#e9d6a3" letter-spacing="1" transform="rotate(-90 150 266)">INSERTS</text>
</svg>