<svg xmlns="http://www.w3.org/2000/svg" viewBox="0 0 400 400" role="img" aria-hidden="true">
<defs>
<linearGradient id="dr-bg" x1="0" y1="0" x2="0" y2="1"><stop offset="0" stop-color="#f8f4ea"/><stop offset="1" stop-color="#ece2cf"/></linearGradient>
<linearGradient id="dr-green" x1="0" y1="0" x2="1" y2="1"><stop offset="0" stop-color="#1e4d39"/><stop offset="1" stop-color="#0e2c20"/></linearGradient>
<linearGradient id="dr-greenL" x1="0" y1="0" x2="0" y2="1"><stop offset="0" stop-color="#2a6b4f"/><stop offset="1" stop-color="#163f2e"/></linearGradient>
<linearGradient id="dr-gold" x1="0" y1="0" x2="0" y2="1"><stop offset="0" stop-color="#e9d6a3"/><stop offset=".55" stop-color="#c9a35c"/><stop offset="1" stop-color="#a57c3c"/></linearGradient>
<linearGradient id="dr-goldD" x1="0" y1="0" x2="0" y2="1"><stop offset="0" stop-color="#c9a35c"/><stop offset="1" stop-color="#8f6a31"/></linearGradient>
<linearGradient id="dr-cream" x1="0" y1="0" x2="0" y2="1"><stop offset="0" stop-color="#fffdf8"/><stop offset="1" stop-color="#efe6d3"/></linearGradient>
<linearGradient id="dr-kraft" x1="0" y1="0" x2="0" y2="1"><stop offset="0" stop-color="#e8cf9f"/><stop offset="1" stop-color="#d3b077"/></linearGradient>
<linearGradient id="dr-kraftD" x1="0" y1="0" x2="0" y2="1"><stop offset="0" stop-color="#d9b984"/><stop offset="1" stop-color="#bf9659"/></linearGradient>
<linearGradient id="dr-dark" x1="0" y1="0" x2="0" y2="1"><stop offset="0" stop-color="#3a3f3b"/><stop offset="1" stop-color="#171b18"/></linearGradient>
<linearGradient id="dr-rose" x1="0" y1="0" x2="1" y2="1"><stop offset="0" stop-color="#d96877"/><stop offset="1" stop-color="#8f2f3b"/></linearGradient>
<linearGradient id="dr-brown" x1="0" y1="0" x2="1" y2="1"><stop offset="0" stop-color="#7a5236"/><stop offset="1" stop-color="#53351f"/></linearGradient>
<linearGradient id="dr-brownD" x1="0" y1="0" x2="0" y2="1"><stop offset="0" stop-color="#5e3c24"/><stop offset="1" stop-color="#3c2413"/></linearGradient>
</defs>
<rect width="400" height="400" fill="url(#dr-bg)"/>
<ellipse cx="200" cy="352" rx="150" ry="17" fill="#d5c7a9" opacity=".5"/><polygon points="140,150 272,150 292,170 160,170" fill="url(#dr-greenL)"/><rect x="140" y="170" width="132" height="112" fill="url(#dr-green)"/><polygon points="272,170 292,170 292,282 272,282" fill="#0d271c"/><rect x="150" y="180" width="112" height="92" rx="6" fill="url(#dr-dark)"/><polygon points="150,180 262,180 262,272 150,272" fill="url(#dr-cream)"/><rect x="112" y="180" width="38" height="92" rx="4" fill="url(#dr-kraft)"/><rect x="126" y="220" width="12" height="14" rx="3" fill="url(#dr-gold)"/><rect x="150" y="180" width="4" height="92" fill="#c9a35c" opacity=".7"/><line x1="150" y1="180" x2="262" y2="180" stroke="#e9d6a3" stroke-width="2" opacity=".8"/><text x="131" y="252" text-anchor="middle" font-family="Georgia,serif" font-size="9" fill="#8f6a31" letter-spacing="1" transform="rotate(-90 131 252)">PULL</text>
</svg>